PathFileType  4	(X/Y/Z) C:\Users\antoi\Documents\MyRepositories\mobilecap\ResultsAnalysis
DataRate	CameraRate	NumFrames	NumMarkers	Units	OrigDataRate	OrigDataStartFrame	OrigNumFrames
100.0	100.0	4	51	mm	100.0	496	1321
Frame#	Time	r_knee			r_shank_antsup			r_ankle			r_calc			r_5meta			r_toe			L_knee			L_shank_antsup			L_ankle			L_calc			L_5meta			L_toe			r_sh2			r_sh3			r_sh4			L_sh2			L_sh3			r_thigh1			r_thigh2			r_thigh3			r_thigh4			r_thigh5			L_thigh1			L_thigh2			L_thigh3			L_thigh4			r.ASIS			r.PSIS			L.ASIS			L.PSIS			C7			R_Shoulder			L_Shoulder			R_Sternum			L_Sternum			R_humerus			R_elbow_med			R_elbow_lat			R_forearm			R_wrist_radius			R_wrist_ulna			L_humerus			L_elbow_med			L_elbow_lat			L_forearm			L_wrist_radius			L_wrist_ulna			R_HJC			L_HJC			R_HJC_reg			L_HJC_reg			
		X1	Y1	Z1	X2	Y2	Z2	X3	Y3	Z3	X4	Y4	Z4	X5	Y5	Z5	X6	Y6	Z6	X7	Y7	Z7	X8	Y8	Z8	X9	Y9	Z9	X10	Y10	Z10	X11	Y11	Z11	X12	Y12	Z12	X13	Y13	Z13	X14	Y14	Z14	X15	Y15	Z15	X16	Y16	Z16	X17	Y17	Z17	X18	Y18	Z18	X19	Y19	Z19	X20	Y20	Z20	X21	Y21	Z21	X22	Y22	Z22	X23	Y23	Z23	X24	Y24	Z24	X25	Y25	Z25	X26	Y26	Z26	X27	Y27	Z27	X28	Y28	Z28	X29	Y29	Z29	X30	Y30	Z30	X31	Y31	Z31	X32	Y32	Z32	X33	Y33	Z33	X34	Y34	Z34	X35	Y35	Z35	X36	Y36	Z36	X37	Y37	Z37	X38	Y38	Z38	X39	Y39	Z39	X40	Y40	Z40	X41	Y41	Z41	X42	Y42	Z42	X43	Y43	Z43	X44	Y44	Z44	X45	Y45	Z45	X46	Y46	Z46	X47	Y47	Z47	X48	Y48	Z48	X49	Y49	Z49	X50	Y50	Z50	X51	Y51	Z51	

496	4.95000000	-221.40855	472.94989	-396.50350	-186.74531	409.33385	-390.72341	-279.48631	86.56144	-381.93216	-333.83046	55.57263	-426.40500	-174.30988	41.82893	-350.17868	-134.87088	59.88733	-402.18642	-208.88099	470.81142	-758.19599	-175.91863	381.74620	-757.82468	-279.07691	94.53185	-788.59418	-336.10917	53.88040	-745.05462	-181.41423	43.63549	-827.17617	-129.09810	58.72293	-775.98811	-213.02377	300.40294	-374.13752	-256.61959	430.16998	-366.90835	-290.81455	318.96042	-355.69563	-251.24106	414.74438	-794.81707	-276.23683	296.23837	-814.87722	-224.42586	729.21927	-371.44383	-200.19156	619.87910	-376.45088	-307.04690	594.44326	-401.85656	-333.31053	708.07731	-393.64668	-260.58672	584.80228	-373.45202	-219.45832	754.22014	-774.39345	-188.50042	618.92274	-768.91865	-329.58904	732.76514	-769.65083	-298.65034	597.75186	-749.24378	-185.88969	914.35444	-464.82618	-379.40467	981.98292	-536.24841	-185.87251	914.89674	-679.97857	-377.21183	981.53369	-618.83095	-232.09882	1391.11076	-574.26942	-168.78737	1360.47916	-434.58988	-169.23280	1357.42966	-717.07826	-106.78557	1330.79361	-557.52686	-112.66517	1325.81063	-590.50487	-109.67230	1275.80905	-371.76372	-55.30663	1063.12431	-364.95062	-34.24588	1095.90096	-307.41768	53.27041	1132.57064	-311.11065	189.81667	1146.05801	-345.65205	195.69802	1112.33061	-328.05058	-132.17638	1265.18672	-786.67170	-63.64875	1049.69358	-769.82453	-54.21032	1082.60521	-829.10716	51.13085	1099.30746	-832.14523	175.32105	1110.52701	-806.28349	177.04162	1071.15906	-816.15977	-280.92406	843.86588	-468.87732	-278.88549	846.14500	-676.36215	-268.29604	863.13515	-495.98424	-264.52766	862.36357	-637.93353	
497	4.96000000	-224.25819	473.47247	-397.04167	-189.79783	410.18363	-391.24718	-279.54893	86.52939	-381.93996	-333.81271	55.59537	-426.33751	-174.30776	41.80127	-350.17458	-134.85277	59.84761	-402.20904	-211.36628	471.47436	-757.18276	-178.34575	382.72218	-756.30345	-279.14720	94.60064	-788.48410	-336.10047	53.85392	-745.04527	-181.40268	43.66025	-827.16469	-129.06214	58.69705	-775.91387	-215.16315	301.02881	-374.41612	-259.92576	430.86213	-367.55062	-293.23463	319.16313	-356.27001	-253.78789	415.27024	-793.51996	-277.79871	296.61410	-813.97167	-222.48243	729.79680	-371.52894	-200.21789	619.89991	-376.94468	-307.55615	596.70705	-402.03817	-331.64657	710.64165	-393.46868	-261.29661	586.03197	-373.88295	-217.26166	754.94424	-774.02032	-188.48696	618.92883	-767.57913	-327.72443	735.05602	-768.76570	-298.99776	599.59634	-747.90165	-182.39985	916.97778	-464.21128	-376.97253	982.14552	-535.80446	-182.70354	917.41457	-679.86983	-374.83448	981.85565	-618.41079	-235.36212	1393.90021	-573.94365	-172.39218	1363.44720	-434.16787	-172.52817	1360.76818	-717.01174	-109.78538	1334.33038	-557.23174	-115.56351	1329.41604	-590.40705	-113.06887	1278.92343	-371.31867	-58.41056	1066.20309	-364.26181	-37.51559	1099.07576	-306.69175	49.96123	1135.80204	-310.07502	186.55082	1149.51669	-344.60376	192.48983	1115.80949	-326.95179	-135.22057	1268.41881	-786.70887	-66.75200	1052.65840	-769.92497	-57.32790	1085.84428	-829.42850	47.90769	1102.62214	-832.32540	172.16625	1113.75988	-806.45812	173.89869	1074.42531	-816.43522	-276.68314	845.33958	-468.43955	-274.85527	847.55555	-675.92709	-264.28888	864.34739	-495.47601	-260.60535	863.84802	-637.76177	
498	4.97000000	-227.05056	473.96451	-397.56378	-192.74343	411.11726	-391.68072	-279.65253	86.42986	-381.93646	-333.82791	55.64192	-426.26236	-174.29722	41.78042	-350.17665	-134.85370	59.78518	-402.18444	-213.84998	471.96645	-755.76856	-180.63279	383.67672	-754.79660	-279.25511	94.65588	-788.34131	-336.11712	53.82689	-745.03736	-181.38728	43.68841	-827.15484	-129.03400	58.66291	-775.83395	-217.40745	301.63592	-374.79509	-262.71494	431.75723	-368.24454	-295.48010	319.38677	-356.86003	-256.24197	415.84389	-792.30462	-279.30167	296.97455	-812.96266	-220.69577	730.40024	-371.49394	-200.34399	619.86416	-377.24941	-308.01569	598.73657	-402.27507	-330.05908	712.99879	-393.23542	-261.89805	587.20905	-374.21008	-215.27249	755.55102	-773.58390	-188.49527	618.96694	-766.31851	-325.87128	737.19291	-767.82336	-299.32200	601.23116	-746.37059	-179.02491	919.29220	-463.56833	-374.64120	982.06393	-535.35403	-179.26833	919.67018	-679.69674	-372.39050	981.76873	-617.96958	-238.62026	1396.28205	-573.58788	-176.11746	1365.95701	-433.79401	-175.81305	1363.67291	-716.71590	-112.70444	1337.44492	-557.06386	-118.44497	1332.73129	-590.38325	-116.39324	1281.60032	-370.80427	-61.41688	1068.82963	-363.03050	-40.57293	1101.95637	-305.87242	46.86646	1138.76967	-309.04197	183.46609	1152.83532	-343.56138	189.46228	1119.13270	-325.82146	-138.24205	1271.29210	-786.57355	-69.43309	1055.63654	-770.29460	-60.27951	1088.80069	-829.62124	44.93295	1105.73289	-832.64832	169.14870	1116.83960	-806.72718	170.89879	1077.48284	-816.70453	-272.47890	846.49554	-467.99628	-270.67453	848.70496	-675.48395	-260.40903	865.51283	-494.99896	-256.52405	865.00270	-637.59018	
499	4.98000000	-229.73552	474.38463	-398.05195	-195.50871	412.05251	-392.12859	-279.78890	86.33312	-381.96326	-333.89808	55.64874	-426.18277	-174.28538	41.78909	-350.19355	-134.87196	59.70232	-402.13944	-216.38595	472.26957	-754.21612	-182.83346	384.60507	-753.50323	-279.33036	94.72113	-788.24296	-336.14522	53.82725	-745.01655	-181.36975	43.72110	-827.13580	-129.00414	58.61000	-775.77220	-219.56356	302.29679	-375.09405	-265.33287	432.41028	-368.92418	-297.63131	319.46349	-357.49487	-258.59991	416.38166	-791.04545	-280.83911	297.27877	-812.02461	-218.94534	730.93090	-371.38609	-200.51356	620.06521	-377.31597	-308.40468	600.51963	-402.57940	-328.53507	715.16170	-392.89608	-262.39109	588.24353	-374.45728	-213.28517	755.98817	-772.98874	-188.44669	619.08638	-765.33940	-324.00523	739.04287	-766.88104	-299.60991	602.79234	-744.77852	-175.84598	921.32057	-462.90750	-372.33783	981.73363	-535.08341	-175.61281	921.64873	-679.20495	-370.08871	981.37083	-617.63230	-241.84832	1398.25383	-573.30313	-179.90206	1368.09779	-433.44069	-179.08629	1366.10281	-716.29675	-115.56499	1340.15551	-556.85133	-121.29770	1335.61599	-590.14502	-119.65202	1283.86511	-370.19300	-64.29153	1071.17962	-361.85848	-43.46072	1104.49603	-304.88526	43.92534	1141.52571	-308.12153	180.47779	1155.92669	-342.56144	186.51261	1122.24493	-324.79128	-141.16355	1273.75809	-786.30560	-71.84220	1058.53541	-770.87029	-63.02130	1091.45834	-829.86942	42.23124	1108.53205	-832.90387	166.31239	1119.79216	-807.04229	168.09160	1080.47470	-817.17105	-268.46308	847.39288	-467.52706	-266.36192	849.58491	-675.01202	-256.44236	866.62117	-494.30650	-252.55499	865.99412	-637.00909	
